<mxfile host="app.diagrams.net" modified="2023-11-15T15:02:27.404Z" agent="Mozilla/5.0 (Windows NT 10.0; Win64; x64) AppleWebKit/537.36 (KHTML, like Gecko) Chrome/119.0.0.0 Safari/537.36" etag="dfvxPAEFuhaZUlr-lujf" version="22.1.1" type="github">
  <diagram name="Page-1" id="QmFKA1tyKzmFpged132I">
    <mxGraphModel dx="3344" dy="1546" grid="1" gridSize="10" guides="1" tooltips="1" connect="1" arrows="1" fold="1" page="1" pageScale="1" pageWidth="850" pageHeight="1100" math="0" shadow="0">
      <root>
        <mxCell id="0" />
        <mxCell id="1" parent="0" />
        <mxCell id="lQJZU8WuRIw0f5EuqwDu-1" value="&lt;b&gt;X&lt;br&gt;&lt;/b&gt;" style="html=1;whiteSpace=wrap;fillColor=#F0CC60;strokeColor=#FFD966;" vertex="1" parent="1">
          <mxGeometry x="-1910" y="-630" width="1290" height="890" as="geometry" />
        </mxCell>
        <mxCell id="lQJZU8WuRIw0f5EuqwDu-2" value="«subsystem»&lt;br&gt;&lt;b&gt;Front-end&lt;br&gt;&lt;br&gt;&lt;br&gt;&lt;br&gt;&lt;br&gt;&lt;br&gt;&lt;br&gt;&lt;br&gt;&lt;br&gt;&lt;br&gt;&lt;br&gt;&lt;br&gt;&lt;br&gt;&lt;br&gt;&lt;br&gt;&lt;br&gt;&lt;br&gt;&lt;br&gt;&lt;br&gt;&lt;br&gt;&lt;br&gt;&lt;br&gt;&lt;br&gt;&lt;br&gt;&lt;br&gt;&lt;br&gt;&lt;br&gt;&lt;br&gt;&lt;br&gt;&lt;br&gt;&lt;br&gt;&lt;br&gt;&lt;br&gt;&lt;br&gt;&lt;br&gt;&lt;br&gt;&lt;br&gt;&lt;br&gt;&lt;br&gt;&lt;br&gt;&lt;br&gt;&lt;br&gt;&lt;br&gt;&lt;br&gt;&lt;br&gt;&lt;br&gt;&lt;br&gt;&lt;/b&gt;" style="html=1;whiteSpace=wrap;fillColor=#fff2cc;strokeColor=#d6b656;" vertex="1" parent="1">
          <mxGeometry x="-1870" y="-540" width="240" height="770" as="geometry" />
        </mxCell>
        <mxCell id="lQJZU8WuRIw0f5EuqwDu-3" value="«Web-App»&lt;br style=&quot;border-color: var(--border-color);&quot;&gt;&lt;b&gt;Reporting webapp&lt;/b&gt;" style="html=1;whiteSpace=wrap;fillColor=#97D077;" vertex="1" parent="1">
          <mxGeometry x="-1805" y="-150" width="110" height="50" as="geometry" />
        </mxCell>
        <mxCell id="lQJZU8WuRIw0f5EuqwDu-4" value="«Web-App»&lt;br style=&quot;border-color: var(--border-color);&quot;&gt;&lt;b&gt;Agents webapp&lt;/b&gt;" style="html=1;whiteSpace=wrap;fillColor=#97D077;" vertex="1" parent="1">
          <mxGeometry x="-1805" y="-230" width="110" height="50" as="geometry" />
        </mxCell>
        <mxCell id="lQJZU8WuRIw0f5EuqwDu-5" value="«Web-App»&lt;br style=&quot;border-color: var(--border-color);&quot;&gt;&lt;b&gt;Members&amp;nbsp; webapp&lt;/b&gt;" style="html=1;whiteSpace=wrap;fillColor=#97D077;" vertex="1" parent="1">
          <mxGeometry x="-1805" y="-310" width="110" height="50" as="geometry" />
        </mxCell>
        <mxCell id="lQJZU8WuRIw0f5EuqwDu-6" value="«Web-App»&lt;br style=&quot;border-color: var(--border-color);&quot;&gt;&lt;b&gt;Administration webapp&lt;/b&gt;" style="html=1;whiteSpace=wrap;fillColor=#97D077;strokeColor=#82b366;" vertex="1" parent="1">
          <mxGeometry x="-1805" y="-390" width="110" height="50" as="geometry" />
        </mxCell>
        <mxCell id="lQJZU8WuRIw0f5EuqwDu-7" value="«Web-App»&lt;br&gt;&lt;b&gt;Public wbsite&lt;/b&gt;" style="html=1;whiteSpace=wrap;fillColor=#97D077;strokeColor=#82b366;" vertex="1" parent="1">
          <mxGeometry x="-1805" y="-470" width="110" height="50" as="geometry" />
        </mxCell>
        <mxCell id="lQJZU8WuRIw0f5EuqwDu-8" value="«Mobile-App»&lt;br style=&quot;border-color: var(--border-color);&quot;&gt;&lt;b&gt;Customer App&lt;/b&gt;" style="html=1;whiteSpace=wrap;fillColor=#EDED5F;" vertex="1" parent="1">
          <mxGeometry x="-1805" y="40" width="110" height="50" as="geometry" />
        </mxCell>
        <mxCell id="lQJZU8WuRIw0f5EuqwDu-9" value="«Mobile-App»&lt;br&gt;&lt;b&gt;Sales Agents&lt;/b&gt;" style="html=1;whiteSpace=wrap;fillColor=#EDED5F;strokeColor=#d79b00;" vertex="1" parent="1">
          <mxGeometry x="-1805" y="-40" width="110" height="50" as="geometry" />
        </mxCell>
        <mxCell id="lQJZU8WuRIw0f5EuqwDu-10" value="«subsystem»&lt;br&gt;&lt;b&gt;&amp;nbsp;Back-end&lt;br&gt;&lt;br&gt;&lt;br&gt;&lt;br&gt;&lt;br&gt;&lt;br&gt;&lt;br&gt;&lt;br&gt;&lt;br&gt;&lt;br&gt;&lt;br&gt;&lt;br&gt;&lt;br&gt;&lt;br&gt;&lt;br&gt;&lt;br&gt;&lt;br&gt;&lt;br&gt;&lt;br&gt;&lt;br&gt;&lt;br&gt;&lt;br&gt;&lt;br&gt;&lt;br&gt;&lt;br&gt;&lt;br&gt;&lt;br&gt;&lt;br&gt;&lt;br&gt;&lt;br&gt;&lt;br&gt;&lt;br&gt;&lt;br&gt;&lt;br&gt;&lt;br&gt;&lt;br&gt;&lt;br&gt;&lt;br&gt;&lt;br&gt;&lt;br&gt;&lt;br&gt;&lt;br&gt;&lt;br&gt;&lt;br&gt;&lt;br&gt;&lt;br&gt;&lt;br&gt;&lt;br&gt;&lt;br&gt;&lt;br&gt;&lt;br&gt;&lt;/b&gt;" style="html=1;whiteSpace=wrap;fillColor=#FFF2CC;strokeColor=#d6b656;" vertex="1" parent="1">
          <mxGeometry x="-1610" y="-540" width="940" height="780" as="geometry" />
        </mxCell>
        <mxCell id="lQJZU8WuRIw0f5EuqwDu-11" value="«subsystem»&lt;br style=&quot;border-color: var(--border-color);&quot;&gt;&lt;b style=&quot;border-color: var(--border-color);&quot;&gt;Insurance services&lt;br&gt;&lt;br&gt;&lt;br&gt;&lt;br&gt;&lt;br&gt;&lt;br&gt;&lt;br&gt;&lt;br&gt;&lt;br&gt;&lt;br&gt;&lt;br&gt;&lt;br&gt;&lt;br style=&quot;border-color: var(--border-color);&quot;&gt;&lt;/b&gt;" style="html=1;whiteSpace=wrap;fillColor=#F0CC60;" vertex="1" parent="1">
          <mxGeometry x="-1600" y="-480" width="590" height="220" as="geometry" />
        </mxCell>
        <mxCell id="lQJZU8WuRIw0f5EuqwDu-12" value="«&lt;b style=&quot;border-color: var(--border-color);&quot;&gt;Component&lt;/b&gt;»&lt;br&gt;&lt;b&gt;Agents managment&lt;/b&gt;" style="html=1;dropTarget=0;whiteSpace=wrap;fillColor=#fff2cc;strokeColor=#d6b656;" vertex="1" parent="1">
          <mxGeometry x="-1570" y="-430" width="150" height="70" as="geometry" />
        </mxCell>
        <mxCell id="lQJZU8WuRIw0f5EuqwDu-13" value="" style="shape=module;jettyWidth=8;jettyHeight=4;" vertex="1" parent="lQJZU8WuRIw0f5EuqwDu-12">
          <mxGeometry x="1" width="20" height="20" relative="1" as="geometry">
            <mxPoint x="-27" y="7" as="offset" />
          </mxGeometry>
        </mxCell>
        <mxCell id="lQJZU8WuRIw0f5EuqwDu-14" value="«&lt;b style=&quot;border-color: var(--border-color);&quot;&gt;Component&lt;/b&gt;»&lt;br&gt;&lt;b&gt;Membership managment&lt;/b&gt;" style="html=1;dropTarget=0;whiteSpace=wrap;fillColor=#fff2cc;strokeColor=#d6b656;" vertex="1" parent="1">
          <mxGeometry x="-1380" y="-430" width="150" height="70" as="geometry" />
        </mxCell>
        <mxCell id="lQJZU8WuRIw0f5EuqwDu-15" value="" style="shape=module;jettyWidth=8;jettyHeight=4;" vertex="1" parent="lQJZU8WuRIw0f5EuqwDu-14">
          <mxGeometry x="1" width="20" height="20" relative="1" as="geometry">
            <mxPoint x="-27" y="7" as="offset" />
          </mxGeometry>
        </mxCell>
        <mxCell id="lQJZU8WuRIw0f5EuqwDu-16" value="«Annotation»&lt;br&gt;&lt;b&gt;Blling&lt;/b&gt;" style="html=1;dropTarget=0;whiteSpace=wrap;fillColor=#fff2cc;strokeColor=#d6b656;" vertex="1" parent="1">
          <mxGeometry x="-1190" y="-430" width="150" height="70" as="geometry" />
        </mxCell>
        <mxCell id="lQJZU8WuRIw0f5EuqwDu-17" value="" style="shape=module;jettyWidth=8;jettyHeight=4;" vertex="1" parent="lQJZU8WuRIw0f5EuqwDu-16">
          <mxGeometry x="1" width="20" height="20" relative="1" as="geometry">
            <mxPoint x="-27" y="7" as="offset" />
          </mxGeometry>
        </mxCell>
        <mxCell id="lQJZU8WuRIw0f5EuqwDu-18" value="«&lt;b style=&quot;border-color: var(--border-color);&quot;&gt;Component&lt;/b&gt;»&lt;br&gt;&lt;b&gt;Insurance quotes&lt;/b&gt;" style="html=1;dropTarget=0;whiteSpace=wrap;fillColor=#fff2cc;strokeColor=#d6b656;" vertex="1" parent="1">
          <mxGeometry x="-1570" y="-350" width="150" height="70" as="geometry" />
        </mxCell>
        <mxCell id="lQJZU8WuRIw0f5EuqwDu-19" value="" style="shape=module;jettyWidth=8;jettyHeight=4;" vertex="1" parent="lQJZU8WuRIw0f5EuqwDu-18">
          <mxGeometry x="1" width="20" height="20" relative="1" as="geometry">
            <mxPoint x="-27" y="7" as="offset" />
          </mxGeometry>
        </mxCell>
        <mxCell id="lQJZU8WuRIw0f5EuqwDu-20" value="«&lt;b style=&quot;border-color: var(--border-color);&quot;&gt;Component&lt;/b&gt;»&lt;br&gt;&lt;b&gt;Pollcy managment&lt;/b&gt;" style="html=1;dropTarget=0;whiteSpace=wrap;fillColor=#fff2cc;strokeColor=#d6b656;" vertex="1" parent="1">
          <mxGeometry x="-1380" y="-350" width="150" height="70" as="geometry" />
        </mxCell>
        <mxCell id="lQJZU8WuRIw0f5EuqwDu-21" value="" style="shape=module;jettyWidth=8;jettyHeight=4;" vertex="1" parent="lQJZU8WuRIw0f5EuqwDu-20">
          <mxGeometry x="1" width="20" height="20" relative="1" as="geometry">
            <mxPoint x="-27" y="7" as="offset" />
          </mxGeometry>
        </mxCell>
        <mxCell id="lQJZU8WuRIw0f5EuqwDu-22" value="«&lt;b style=&quot;border-color: var(--border-color);&quot;&gt;Component&lt;/b&gt;»&lt;br&gt;&lt;b&gt;Pricing calculator&lt;/b&gt;" style="html=1;dropTarget=0;whiteSpace=wrap;fillColor=#fff2cc;strokeColor=#d6b656;" vertex="1" parent="1">
          <mxGeometry x="-1190" y="-350" width="150" height="70" as="geometry" />
        </mxCell>
        <mxCell id="lQJZU8WuRIw0f5EuqwDu-23" value="" style="shape=module;jettyWidth=8;jettyHeight=4;" vertex="1" parent="lQJZU8WuRIw0f5EuqwDu-22">
          <mxGeometry x="1" width="20" height="20" relative="1" as="geometry">
            <mxPoint x="-27" y="7" as="offset" />
          </mxGeometry>
        </mxCell>
        <mxCell id="lQJZU8WuRIw0f5EuqwDu-24" value="«subsystem»&lt;br style=&quot;border-color: var(--border-color);&quot;&gt;&lt;b&gt;Web contents managment serves&lt;br&gt;&lt;/b&gt;&lt;br&gt;&lt;br&gt;&lt;br&gt;&lt;br&gt;&lt;br&gt;&lt;br&gt;&lt;br&gt;&lt;br&gt;&lt;br&gt;&lt;br&gt;&lt;br&gt;" style="html=1;whiteSpace=wrap;fillColor=#F0CC60;" vertex="1" parent="1">
          <mxGeometry x="-1597.5" y="-230" width="590" height="220" as="geometry" />
        </mxCell>
        <mxCell id="lQJZU8WuRIw0f5EuqwDu-25" value="«&lt;b style=&quot;border-color: var(--border-color);&quot;&gt;Component&lt;/b&gt;»&lt;br&gt;&lt;b&gt;CMS&lt;/b&gt;" style="html=1;dropTarget=0;whiteSpace=wrap;fillColor=#fff2cc;strokeColor=#d6b656;" vertex="1" parent="1">
          <mxGeometry x="-1570" y="-180" width="150" height="70" as="geometry" />
        </mxCell>
        <mxCell id="lQJZU8WuRIw0f5EuqwDu-26" value="" style="shape=module;jettyWidth=8;jettyHeight=4;" vertex="1" parent="lQJZU8WuRIw0f5EuqwDu-25">
          <mxGeometry x="1" width="20" height="20" relative="1" as="geometry">
            <mxPoint x="-27" y="7" as="offset" />
          </mxGeometry>
        </mxCell>
        <mxCell id="lQJZU8WuRIw0f5EuqwDu-27" value="«&lt;b style=&quot;border-color: var(--border-color);&quot;&gt;Component&lt;/b&gt;»&lt;br&gt;&lt;b&gt;Accounts managment&lt;/b&gt;" style="html=1;dropTarget=0;whiteSpace=wrap;fillColor=#fff2cc;strokeColor=#d6b656;" vertex="1" parent="1">
          <mxGeometry x="-880" y="-60" width="150" height="70" as="geometry" />
        </mxCell>
        <mxCell id="lQJZU8WuRIw0f5EuqwDu-28" value="" style="shape=module;jettyWidth=8;jettyHeight=4;" vertex="1" parent="lQJZU8WuRIw0f5EuqwDu-27">
          <mxGeometry x="1" width="20" height="20" relative="1" as="geometry">
            <mxPoint x="-27" y="7" as="offset" />
          </mxGeometry>
        </mxCell>
        <mxCell id="lQJZU8WuRIw0f5EuqwDu-29" value="«&lt;b style=&quot;border-color: var(--border-color);&quot;&gt;Component&lt;/b&gt;»&lt;br&gt;&lt;b&gt;Banners managment&lt;/b&gt;" style="html=1;dropTarget=0;whiteSpace=wrap;fillColor=#fff2cc;strokeColor=#d6b656;" vertex="1" parent="1">
          <mxGeometry x="-1190" y="-180" width="150" height="70" as="geometry" />
        </mxCell>
        <mxCell id="lQJZU8WuRIw0f5EuqwDu-30" value="" style="shape=module;jettyWidth=8;jettyHeight=4;" vertex="1" parent="lQJZU8WuRIw0f5EuqwDu-29">
          <mxGeometry x="1" width="20" height="20" relative="1" as="geometry">
            <mxPoint x="-27" y="7" as="offset" />
          </mxGeometry>
        </mxCell>
        <mxCell id="lQJZU8WuRIw0f5EuqwDu-31" value="«&lt;b style=&quot;border-color: var(--border-color);&quot;&gt;Component&lt;/b&gt;»&lt;br&gt;&lt;b&gt;Broadcast services&lt;br&gt;(SMS,EMails)&lt;br&gt;&lt;/b&gt;" style="html=1;dropTarget=0;whiteSpace=wrap;fillColor=#fff2cc;strokeColor=#d6b656;" vertex="1" parent="1">
          <mxGeometry x="-1570" y="-100" width="150" height="70" as="geometry" />
        </mxCell>
        <mxCell id="lQJZU8WuRIw0f5EuqwDu-32" value="" style="shape=module;jettyWidth=8;jettyHeight=4;" vertex="1" parent="lQJZU8WuRIw0f5EuqwDu-31">
          <mxGeometry x="1" width="20" height="20" relative="1" as="geometry">
            <mxPoint x="-27" y="7" as="offset" />
          </mxGeometry>
        </mxCell>
        <mxCell id="lQJZU8WuRIw0f5EuqwDu-33" value="«&lt;b style=&quot;border-color: var(--border-color);&quot;&gt;Component&lt;/b&gt;»&lt;br&gt;&lt;b&gt;SEO&lt;/b&gt;" style="html=1;dropTarget=0;whiteSpace=wrap;fillColor=#fff2cc;strokeColor=#d6b656;" vertex="1" parent="1">
          <mxGeometry x="-1377.5" y="-100" width="147.5" height="70" as="geometry" />
        </mxCell>
        <mxCell id="lQJZU8WuRIw0f5EuqwDu-34" value="" style="shape=module;jettyWidth=8;jettyHeight=4;" vertex="1" parent="lQJZU8WuRIw0f5EuqwDu-33">
          <mxGeometry x="1" width="20" height="20" relative="1" as="geometry">
            <mxPoint x="-27" y="7" as="offset" />
          </mxGeometry>
        </mxCell>
        <mxCell id="lQJZU8WuRIw0f5EuqwDu-35" value="«&lt;b style=&quot;border-color: var(--border-color);&quot;&gt;Component&lt;/b&gt;»&lt;br&gt;&lt;b&gt;Component&lt;/b&gt;" style="html=1;dropTarget=0;whiteSpace=wrap;fillColor=#F0CC60;" vertex="1" parent="1">
          <mxGeometry x="-1180" width="150" height="70" as="geometry" />
        </mxCell>
        <mxCell id="lQJZU8WuRIw0f5EuqwDu-36" value="" style="shape=module;jettyWidth=8;jettyHeight=4;" vertex="1" parent="lQJZU8WuRIw0f5EuqwDu-35">
          <mxGeometry x="1" width="20" height="20" relative="1" as="geometry">
            <mxPoint x="-27" y="7" as="offset" />
          </mxGeometry>
        </mxCell>
        <mxCell id="lQJZU8WuRIw0f5EuqwDu-37" value="«&lt;b style=&quot;border-color: var(--border-color);&quot;&gt;Component&lt;/b&gt;»&lt;br&gt;&lt;b&gt;Component&lt;/b&gt;" style="html=1;dropTarget=0;whiteSpace=wrap;fillColor=#F0CC60;strokeColor=#d6b656;" vertex="1" parent="1">
          <mxGeometry x="-1377.5" width="150" height="70" as="geometry" />
        </mxCell>
        <mxCell id="lQJZU8WuRIw0f5EuqwDu-38" value="" style="shape=module;jettyWidth=8;jettyHeight=4;" vertex="1" parent="lQJZU8WuRIw0f5EuqwDu-37">
          <mxGeometry x="1" width="20" height="20" relative="1" as="geometry">
            <mxPoint x="-27" y="7" as="offset" />
          </mxGeometry>
        </mxCell>
        <mxCell id="lQJZU8WuRIw0f5EuqwDu-39" value="«&lt;b style=&quot;border-color: var(--border-color);&quot;&gt;Component&lt;/b&gt;»&lt;br&gt;&lt;b&gt;Financial services&lt;br&gt;(reconcilation)&lt;br&gt;&lt;/b&gt;" style="html=1;dropTarget=0;whiteSpace=wrap;fillColor=#F0CC60;strokeColor=#d6b656;" vertex="1" parent="1">
          <mxGeometry x="-1570" width="150" height="70" as="geometry" />
        </mxCell>
        <mxCell id="lQJZU8WuRIw0f5EuqwDu-40" value="" style="shape=module;jettyWidth=8;jettyHeight=4;" vertex="1" parent="lQJZU8WuRIw0f5EuqwDu-39">
          <mxGeometry x="1" width="20" height="20" relative="1" as="geometry">
            <mxPoint x="-27" y="7" as="offset" />
          </mxGeometry>
        </mxCell>
        <mxCell id="lQJZU8WuRIw0f5EuqwDu-41" value="«subsystem»&lt;br&gt;Integratl on API&#39;s&lt;br&gt;&lt;br&gt;&lt;br&gt;&lt;br&gt;&lt;br&gt;&lt;br&gt;" style="html=1;whiteSpace=wrap;fillColor=#F0CC60;" vertex="1" parent="1">
          <mxGeometry x="-1600" y="80" width="590" height="150" as="geometry" />
        </mxCell>
        <mxCell id="lQJZU8WuRIw0f5EuqwDu-42" value="«API»&lt;br&gt;&lt;b&gt;Quote request&lt;/b&gt;" style="html=1;whiteSpace=wrap;fillColor=#fff2cc;strokeColor=#d6b656;" vertex="1" parent="1">
          <mxGeometry x="-1570" y="150" width="110" height="50" as="geometry" />
        </mxCell>
        <mxCell id="lQJZU8WuRIw0f5EuqwDu-43" value="«API»&lt;br&gt;&lt;b&gt;Online policy lssuance&lt;/b&gt;" style="html=1;whiteSpace=wrap;fillColor=#fff2cc;strokeColor=#d6b656;" vertex="1" parent="1">
          <mxGeometry x="-1430" y="150" width="110" height="50" as="geometry" />
        </mxCell>
        <mxCell id="lQJZU8WuRIw0f5EuqwDu-44" value="«API»&lt;br&gt;&lt;b&gt;Payment gateway&lt;/b&gt;" style="html=1;whiteSpace=wrap;fillColor=#fff2cc;strokeColor=#d6b656;" vertex="1" parent="1">
          <mxGeometry x="-1290" y="150" width="110" height="50" as="geometry" />
        </mxCell>
        <mxCell id="lQJZU8WuRIw0f5EuqwDu-45" value="«API»&lt;br&gt;&lt;b&gt;SMSGaleway&lt;/b&gt;" style="html=1;whiteSpace=wrap;fillColor=#fff2cc;strokeColor=#d6b656;" vertex="1" parent="1">
          <mxGeometry x="-1150" y="150" width="110" height="50" as="geometry" />
        </mxCell>
        <mxCell id="lQJZU8WuRIw0f5EuqwDu-46" value="«subsystem»&lt;br&gt;&lt;b&gt;Infrastructure services&lt;br&gt;&lt;br&gt;&lt;br&gt;&lt;br&gt;&lt;br&gt;&lt;br&gt;&lt;br&gt;&lt;br&gt;&lt;br&gt;&lt;br&gt;&lt;br&gt;&lt;br&gt;&lt;br&gt;&lt;br&gt;&lt;br&gt;&lt;br&gt;&lt;br&gt;&lt;br&gt;&lt;br&gt;&lt;br&gt;&lt;br&gt;&lt;br&gt;&lt;br&gt;&lt;br&gt;&lt;br&gt;&lt;br&gt;&lt;br&gt;&lt;br&gt;&lt;br&gt;&lt;br&gt;&lt;br&gt;&lt;br&gt;&lt;br&gt;&lt;br&gt;&lt;br&gt;&lt;br&gt;&lt;br&gt;&lt;br&gt;&lt;br&gt;&lt;br&gt;&lt;/b&gt;" style="html=1;whiteSpace=wrap;fillColor=#F0CC60;" vertex="1" parent="1">
          <mxGeometry x="-960" y="-480" width="260" height="650" as="geometry" />
        </mxCell>
        <mxCell id="lQJZU8WuRIw0f5EuqwDu-47" value="«&lt;b style=&quot;border-color: var(--border-color);&quot;&gt;Component&lt;/b&gt;»&lt;br&gt;&lt;b&gt;Securty&lt;/b&gt;" style="html=1;dropTarget=0;whiteSpace=wrap;fillColor=#fff2cc;strokeColor=#d6b656;" vertex="1" parent="1">
          <mxGeometry x="-920" y="-400" width="180" height="90" as="geometry" />
        </mxCell>
        <mxCell id="lQJZU8WuRIw0f5EuqwDu-48" value="" style="shape=module;jettyWidth=8;jettyHeight=4;" vertex="1" parent="lQJZU8WuRIw0f5EuqwDu-47">
          <mxGeometry x="1" width="20" height="20" relative="1" as="geometry">
            <mxPoint x="-27" y="7" as="offset" />
          </mxGeometry>
        </mxCell>
        <mxCell id="lQJZU8WuRIw0f5EuqwDu-49" value="«&lt;b style=&quot;border-color: var(--border-color);&quot;&gt;Component&lt;/b&gt;»&lt;br&gt;&lt;b&gt;Monitor and analytics&lt;/b&gt;" style="html=1;dropTarget=0;whiteSpace=wrap;fillColor=#fff2cc;strokeColor=#d6b656;" vertex="1" parent="1">
          <mxGeometry x="-920" y="-270" width="180" height="90" as="geometry" />
        </mxCell>
        <mxCell id="lQJZU8WuRIw0f5EuqwDu-50" value="" style="shape=module;jettyWidth=8;jettyHeight=4;" vertex="1" parent="lQJZU8WuRIw0f5EuqwDu-49">
          <mxGeometry x="1" width="20" height="20" relative="1" as="geometry">
            <mxPoint x="-27" y="7" as="offset" />
          </mxGeometry>
        </mxCell>
        <mxCell id="lQJZU8WuRIw0f5EuqwDu-51" value="«&lt;b style=&quot;border-color: var(--border-color);&quot;&gt;Component&lt;/b&gt;»&lt;br&gt;&lt;b&gt;Motifications &amp;amp; alerts&lt;/b&gt;" style="html=1;dropTarget=0;whiteSpace=wrap;fillColor=#fff2cc;strokeColor=#d6b656;" vertex="1" parent="1">
          <mxGeometry x="-920" y="-140" width="180" height="90" as="geometry" />
        </mxCell>
        <mxCell id="lQJZU8WuRIw0f5EuqwDu-52" value="" style="shape=module;jettyWidth=8;jettyHeight=4;" vertex="1" parent="lQJZU8WuRIw0f5EuqwDu-51">
          <mxGeometry x="1" width="20" height="20" relative="1" as="geometry">
            <mxPoint x="-27" y="7" as="offset" />
          </mxGeometry>
        </mxCell>
        <mxCell id="lQJZU8WuRIw0f5EuqwDu-53" value="«&lt;b style=&quot;border-color: var(--border-color);&quot;&gt;Component&lt;/b&gt;»&lt;br&gt;&lt;b&gt;Auditing&lt;/b&gt;" style="html=1;dropTarget=0;whiteSpace=wrap;fillColor=#fff2cc;strokeColor=#d6b656;" vertex="1" parent="1">
          <mxGeometry x="-920" y="-10" width="180" height="90" as="geometry" />
        </mxCell>
        <mxCell id="lQJZU8WuRIw0f5EuqwDu-54" value="" style="shape=module;jettyWidth=8;jettyHeight=4;" vertex="1" parent="lQJZU8WuRIw0f5EuqwDu-53">
          <mxGeometry x="1" width="20" height="20" relative="1" as="geometry">
            <mxPoint x="-27" y="7" as="offset" />
          </mxGeometry>
        </mxCell>
      </root>
    </mxGraphModel>
  </diagram>
</mxfile>
